<svg xmlns="http://www.w3.org/2000/svg" viewBox="0 0 200 200">
<path d="M 100 100 L 100.000 12.000 A 88 88 0 0 1 162.225 37.775 Z" fill="#f43f5e"/>
<path d="M 100 100 L 162.225 37.775 A 88 88 0 0 1 188.000 100.000 Z" fill="#3b82f6"/>
<path d="M 100 100 L 188.000 100.000 A 88 88 0 0 1 162.225 162.225 Z" fill="#22c55e"/>
<path d="M 100 100 L 162.225 162.225 A 88 88 0 0 1 100.000 188.000 Z" fill="#eab308"/>
<path d="M 100 100 L 100.000 188.000 A 88 88 0 0 1 37.775 162.225 Z" fill="#a855f7"/>
<path d="M 100 100 L 37.775 162.225 A 88 88 0 0 1 12.000 100.000 Z" fill="#06b6d4"/>
<path d="M 100 100 L 12.000 100.000 A 88 88 0 0 1 37.775 37.775 Z" fill="#f97316"/>
<path d="M 100 100 L 37.775 37.775 A 88 88 0 0 1 100.000 12.000 Z" fill="#14b8a6"/>
<circle cx="100" cy="100" r="88" fill="none" stroke="#ffffff" stroke-opacity="0.85" stroke-width="6"/>
<path d="M 89 8 L 111 8 L 100 20 Z" fill="#ffffff"/>
<circle cx="100" cy="100" r="11" fill="#ffffff"/>
</svg>
